P3
16 16
255
0 0 0
0 0 0
0 0 0
0 0 0
0 0 0
0 0 0
0 0 0
0 0 0
0 0 0
0 0 0
0 0 0
0 0 0
0 0 0
0 0 0
0 0 0
0 0 0
0 0 0
0 0 0
0 0 0
0 0 0
0 0 0
255 100 0
255 100 0
255 100 0
255 100 0
255 100 0
255 100 0
0 0 0
0 0 0
0 0 0
0 0 0
0 0 0
0 0 0
0 0 0
0 0 0
255 100 0
255 100 0
255 100 0
255 100 0
255 100 0
255 100 0
255 100 0
255 100 0
255 100 0
255 100 0
0 0 0
0 0 0
0 0 0
0 0 0
0 0 0
255 100 0
255 100 0
255 100 0
255 100 0
255 100 0
255 100 0
255 100 0
255 100 0
255 100 0
255 100 0
255 100 0
255 100 0
0 0 0
0 0 0
0 0 0
0 0 0
255 100 0
255 100 0
255 100 0
255 100 0
255 100 0
255 100 0
255 100 0
255 100 0
255 100 0
255 100 0
255 100 0
255 100 0
0 0 0
0 0 0
0 0 0
255 100 0
255 100 0
255 100 0
255 100 0
0 0 0
255 100 0
255 100 0
255 100 0
255 100 0
0 0 0
255 100 0
255 100 0
255 100 0
255 100 0
0 0 0
0 0 0
255 100 0
255 100 0
255 100 0
0 0 0
0 0 0
0 0 0
255 100 0
255 100 0
0 0 0
0 0 0
0 0 0
255 100 0
255 100 0
255 100 0
0 0 0
0 0 0
255 100 0
255 100 0
255 100 0
0 0 0
255 100 0
0 0 0
255 100 0
255 100 0
0 0 0
255 100 0
0 0 0
255 100 0
255 100 0
255 100 0
0 0 0
0 0 0
255 100 0
255 100 0
255 100 0
255 100 0
255 100 0
255 100 0
255 100 0
255 100 0
255 100 0
255 100 0
255 100 0
255 100 0
255 100 0
255 100 0
0 0 0
0 0 0
255 100 0
255 100 0
255 100 0
255 100 0
255 100 0
255 100 0
255 100 0
255 100 0
255 100 0
255 100 0
255 100 0
255 100 0
255 100 0
255 100 0
0 0 0
0 0 0
255 100 0
255 100 0
0 0 0
0 0 0
0 0 0
0 0 0
0 0 0
0 0 0
0 0 0
0 0 0
0 0 0
0 0 0
255 100 0
255 100 0
0 0 0
0 0 0
0 0 0
255 100 0
255 100 0
0 0 0
0 0 0
255 20 147
0 0 0
0 0 0
255 20 147
0 0 0
0 0 0
255 100 0
255 100 0
0 0 0
0 0 0
0 0 0
0 0 0
255 100 0
255 100 0
255 100 0
0 0 0
255 20 147
255 20 147
255 20 147
255 20 147
0 0 0
255 100 0
255 100 0
255 100 0
0 0 0
0 0 0
0 0 0
0 0 0
0 0 0
255 100 0
255 100 0
255 100 0
255 20 147
255 20 147
255 20 147
255 20 147
255 100 0
255 100 0
255 100 0
0 0 0
0 0 0
0 0 0
0 0 0
0 0 0
0 0 0
0 0 0
255 100 0
255 100 0
255 20 147
255 20 147
255 20 147
255 20 147
255 100 0
255 100 0
0 0 0
0 0 0
0 0 0
0 0 0
0 0 0
0 0 0
0 0 0
0 0 0
0 0 0
0 0 0
0 0 0
255 20 147
255 20 147
0 0 0
0 0 0
0 0 0
0 0 0
0 0 0
0 0 0
0 0 0