P3
16 16
255
0 0 0
0 0 0
0 0 0
0 0 0
0 0 0
0 0 0
0 0 0
0 0 0
0 0 0
0 0 0
0 0 0
0 0 0
0 0 0
0 0 0
0 0 0
0 0 0
0 0 0
0 0 0
0 0 0
0 0 0
0 0 0
0 0 0
0 0 0
0 0 0
0 0 0
0 0 0
0 0 0
0 0 0
0 0 0
0 0 0
0 0 0
0 0 0
0 0 0
0 0 0
0 0 0
0 0 0
0 0 0
0 0 0
0 0 0
0 0 0
0 0 0
0 0 0
0 0 0
0 0 0
0 0 0
0 0 0
0 0 0
0 0 0
0 0 0
0 0 0
0 0 0
0 0 0
0 0 0
0 0 0
0 0 0
0 0 0
0 0 0
0 0 0
0 0 0
0 0 0
0 0 0
0 0 0
0 0 0
0 0 0
0 0 0
0 0 0
0 0 0
0 0 0
0 0 0
255 255 255
255 255 255
255 255 255
255 255 255
0 0 0
0 0 0
0 0 0
0 0 0
0 0 0
0 0 0
0 0 0
0 0 0
0 0 0
0 0 0
0 0 0
255 255 255
255 255 255
255 255 255
255 255 255
255 255 255
255 255 255
0 0 0
0 0 0
0 0 0
0 0 0
0 0 0
0 0 0
0 0 0
0 0 0
0 0 0
255 255 255
255 255 255
255 255 255
255 255 255
255 255 255
255 255 255
255 255 255
255 255 255
0 0 0
0 0 0
0 0 0
0 0 0
0 0 0
0 0 0
0 0 0
255 255 255
255 255 255
255 255 255
255 255 255
255 255 255
255 255 255
255 255 255
107 107 107
107 107 107
107 107 107
0 0 0
0 0 0
0 0 0
0 0 0
0 0 0
255 255 255
255 255 255
255 255 255
255 255 255
255 255 255
255 255 255
107 107 107
107 107 107
107 107 107
107 107 107
107 107 107
107 107 107
0 0 0
0 0 0
0 0 0
0 0 0
255 255 255
255 255 255
255 255 255
255 255 255
255 255 255
107 107 107
107 107 107
107 107 107
107 107 107
107 107 107
107 107 107
107 107 107
107 107 107
107 107 107
0 0 0
0 0 0
255 255 255
255 255 255
255 255 255
255 255 255
107 107 107
107 107 107
107 107 107
107 107 107
107 107 107
107 107 107
107 107 107
107 107 107
107 107 107
107 107 107
107 107 107
0 0 0
255 255 255
255 255 255
255 255 255
107 107 107
107 107 107
107 107 107
107 107 107
107 107 107
107 107 107
107 107 107
107 107 107
107 107 107
107 107 107
107 107 107
107 107 107
0 0 0
0 0 0
255 255 255
255 255 255
107 107 107
107 107 107
107 107 107
107 107 107
107 107 107
107 107 107
107 107 107
107 107 107
107 107 107
107 107 107
107 107 107
107 107 107
0 0 0
0 0 0
0 0 0
0 0 0
107 107 107
107 107 107
107 107 107
107 107 107
107 107 107
107 107 107
107 107 107
107 107 107
107 107 107
107 107 107
107 107 107
0 0 0
0 0 0
0 0 0
0 0 0
0 0 0
0 0 0
107 107 107
107 107 107
107 107 107
107 107 107
107 107 107
107 107 107
107 107 107
107 107 107
107 107 107
0 0 0
0 0 0
0 0 0
0 0 0
0 0 0
0 0 0
0 0 0
0 0 0
0 0 0
0 0 0
0 0 0
0 0 0
0 0 0
0 0 0
0 0 0
0 0 0
0 0 0
0 0 0