P3
16 16
255
0 0 0
0 0 0
0 0 0
0 0 0
0 0 0
0 0 0
0 0 0
0 0 0
0 0 0
0 0 0
0 0 0
0 0 0
0 0 0
0 0 0
0 0 0
0 0 0
0 0 0
0 0 0
0 0 0
0 0 0
0 0 0
255 255 255
255 255 255
255 255 255
255 255 255
0 0 0
0 0 0
0 0 0
0 0 0
0 0 0
0 0 0
0 0 0
0 0 0
0 0 0
0 0 0
0 0 0
255 255 255
255 255 255
255 255 255
255 255 255
255 255 255
255 255 255
0 0 0
0 0 0
0 0 0
0 0 0
0 0 0
0 0 0
0 0 0
0 0 0
0 0 0
255 255 255
255 255 255
255 255 255
255 255 255
255 255 255
255 255 255
255 255 255
255 255 255
255 255 255
0 0 0
0 0 0
0 0 0
0 0 0
0 0 0
0 0 0
255 255 255
255 255 255
255 255 255
255 255 255
255 255 255
255 255 255
255 255 255
105 105 105
105 105 105
105 105 105
105 105 105
0 0 0
0 0 0
0 0 0
0 0 0
255 255 255
255 255 255
255 255 255
255 255 255
255 255 255
255 255 255
105 105 105
105 105 105
105 105 105
105 105 105
105 105 105
105 105 105
105 105 105
105 105 105
0 0 0
0 0 0
255 255 255
255 255 255
255 255 255
255 255 255
255 255 255
255 255 255
105 105 105
105 105 105
105 105 105
105 105 105
105 105 105
105 105 105
105 105 105
105 105 105
105 105 105
0 0 0
255 255 255
255 255 255
255 255 255
255 255 255
105 105 105
105 105 105
105 105 105
105 105 105
105 105 105
105 105 105
105 105 105
105 105 105
105 105 105
105 105 105
105 105 105
0 0 0
0 0 0
255 255 255
255 255 255
255 255 255
105 105 105
105 105 105
105 105 105
105 105 105
105 105 105
105 105 105
105 105 105
105 105 105
105 105 105
105 105 105
105 105 105
0 0 0
0 0 0
0 0 0
0 0 0
0 0 0
105 105 105
105 105 105
105 105 105
105 105 105
105 105 105
105 105 105
105 105 105
105 105 105
105 105 105
105 105 105
0 0 0
0 0 0
0 0 0
0 0 0
0 0 0
0 0 0
0 0 0
105 105 105
105 105 105
0 0 0
105 105 105
105 105 105
105 105 105
105 105 105
105 105 105
0 0 0
0 0 0
0 0 0
0 0 0
0 0 0
4 0 255
0 0 0
0 0 0
0 0 0
0 0 0
4 0 255
0 0 0
0 0 0
0 0 0
0 0 0
0 0 0
4 0 255
0 0 0
0 0 0
0 0 0
4 0 255
0 0 0
0 0 0
0 0 0
0 0 0
4 0 255
0 0 0
0 0 0
4 0 255
0 0 0
0 0 0
4 0 255
0 0 0
0 0 0
0 0 0
0 0 0
0 0 0
0 0 0
4 0 255
0 0 0
0 0 0
0 0 0
0 0 0
4 0 255
0 0 0
0 0 0
0 0 0
0 0 0
0 0 0
0 0 0
0 0 0
0 0 0
0 0 0
4 0 255
0 0 0
0 0 0
0 0 0
0 0 0
0 0 0
0 0 0
0 0 0
0 0 0
0 0 0
0 0 0
0 0 0
0 0 0
0 0 0
0 0 0
0 0 0
0 0 0
0 0 0
0 0 0
0 0 0
0 0 0
0 0 0
0 0 0
0 0 0
0 0 0
0 0 0
0 0 0
0 0 0
0 0 0