P3
16 16
255
0 0 0
0 0 0
0 0 0
0 0 0
0 0 0
0 0 0
0 0 0
0 0 0
0 0 0
0 0 0
0 0 0
0 0 0
0 0 0
0 0 0
0 0 0
0 0 0
0 0 0
0 0 0
0 0 0
0 0 0
0 0 0
0 0 0
0 0 0
0 0 0
0 0 0
0 0 0
0 0 0
0 0 0
0 0 0
0 0 0
0 0 0
0 0 0
0 0 0
0 0 0
0 0 0
0 0 0
0 0 0
0 0 0
255 187 0
0 0 0
0 0 0
0 0 0
0 0 0
0 0 0
0 0 0
0 0 0
0 0 0
0 0 0
0 0 0
0 0 0
255 187 0
0 0 0
0 0 0
0 0 0
255 187 0
0 0 0
0 0 0
0 0 0
0 0 0
0 0 0
0 0 0
0 0 0
0 0 0
0 0 0
0 0 0
0 0 0
0 0 0
255 187 0
0 0 0
0 0 0
0 0 0
0 0 0
0 0 0
0 0 0
0 0 0
0 0 0
0 0 0
0 0 0
0 0 0
0 0 0
0 0 0
0 0 0
0 0 0
0 0 0
0 0 0
255 187 0
255 187 0
255 187 0
0 0 0
141 141 145
141 141 145
141 141 145
0 0 0
0 0 0
0 0 0
0 0 0
0 0 0
0 0 0
0 0 0
0 0 0
255 187 0
255 187 0
255 187 0
255 187 0
141 141 145
141 141 145
141 141 145
141 141 145
141 141 145
0 0 0
0 0 0
0 0 0
0 0 0
255 187 0
255 187 0
0 0 0
255 187 0
255 187 0
255 187 0
141 141 145
141 141 145
141 141 145
141 141 145
141 141 145
141 141 145
141 141 145
141 141 145
0 0 0
0 0 0
0 0 0
0 0 0
0 0 0
255 187 0
255 187 0
141 141 145
141 141 145
141 141 145
141 141 145
141 141 145
141 141 145
141 141 145
141 141 145
141 141 145
141 141 145
0 0 0
0 0 0
0 0 0
0 0 0
0 0 0
141 141 145
141 141 145
141 141 145
141 141 145
141 141 145
141 141 145
141 141 145
141 141 145
141 141 145
141 141 145
141 141 145
0 0 0
0 0 0
0 0 0
255 187 0
0 0 0
141 141 145
141 141 145
141 141 145
141 141 145
141 141 145
141 141 145
141 141 145
141 141 145
141 141 145
141 141 145
0 0 0
0 0 0
0 0 0
255 187 0
0 0 0
0 0 0
0 0 0
141 141 145
141 141 145
0 0 0
141 141 145
141 141 145
141 141 145
141 141 145
141 141 145
0 0 0
0 0 0
0 0 0
0 0 0
0 0 0
0 0 0
0 0 0
0 0 0
0 0 0
0 0 0
0 42 255
0 0 0
0 0 0
0 0 0
0 0 0
0 0 0
0 42 255
0 0 0
0 0 0
0 0 0
0 0 0
0 0 0
0 0 0
0 42 255
0 0 0
0 42 255
0 0 0
0 0 0
0 42 255
0 0 0
0 0 0
0 42 255
0 0 0
0 0 0
0 0 0
0 0 0
0 0 0
0 0 0
0 42 255
0 0 0
0 0 0
0 0 0
0 0 0
0 42 255
0 0 0
0 0 0
0 0 0
0 0 0
0 0 0
0 0 0
0 0 0
0 0 0
0 0 0
0 0 0
0 0 0
0 0 0
0 0 0
0 0 0
0 0 0
0 0 0
0 0 0
0 0 0
0 0 0
0 0 0
0 0 0
0 0 0